HIERARCHY
ROOT Hips
{
 OFFSET 0.000000 0.000000 0.000000
 CHANNELS 6 Xposition Yposition Zposition Yrotation Xrotation Zrotation
 JOINT Chest
 {
  OFFSET 0.000000 9.585900 0.002600
  CHANNELS 3 Yrotation Xrotation Zrotation
  JOINT Chest2
  {
   OFFSET 0.000000 9.601200 -0.005300
   CHANNELS 3 Yrotation Xrotation Zrotation
   JOINT Chest3
   {
    OFFSET 0.000000 9.561800 0.000000
    CHANNELS 3 Yrotation Xrotation Zrotation
    JOINT Chest4
    {
     OFFSET 0.000000 9.552100 0.000000
     CHANNELS 3 Yrotation Xrotation Zrotation
     JOINT Neck
     {
      OFFSET 0.000000 14.453000 0.000000
      CHANNELS 3 Yrotation Xrotation Zrotation
      JOINT Head
      {
       OFFSET 0.000000 8.936500 -0.011300
       CHANNELS 3 Yrotation Xrotation Zrotation
       End Site
       {
        OFFSET 0.000000 17.073600 -0.006000
       }
      }
     }
     JOINT RightCollar
     {
      OFFSET -2.921100 9.558500 0.000000
      CHANNELS 3 Yrotation Xrotation Zrotation
      JOINT RightShoulder
      {
       OFFSET -13.519700 0.000000 0.000000
       CHANNELS 3 Yrotation Xrotation Zrotation
       JOINT RightElbow
       {
        OFFSET 0.000000 -29.696600 0.000000
        CHANNELS 3 Yrotation Xrotation Zrotation
        JOINT RightWrist
        {
         OFFSET 0.000000 -24.004700 0.000000
         CHANNELS 3 Yrotation Xrotation Zrotation
         End Site
         {
          OFFSET 0.000000 -17.728500 0.000000
         }
        }
       }
      }
     }
     JOINT LeftCollar
     {
      OFFSET 2.921100 9.558500 0.000000
      CHANNELS 3 Yrotation Xrotation Zrotation
      JOINT LeftShoulder
      {
       OFFSET 13.519700 0.000000 0.000000
       CHANNELS 3 Yrotation Xrotation Zrotation
       JOINT LeftElbow
       {
        OFFSET 0.000000 -29.696600 0.000000
        CHANNELS 3 Yrotation Xrotation Zrotation
        JOINT LeftWrist
        {
         OFFSET 0.000000 -24.004700 0.000000
         CHANNELS 3 Yrotation Xrotation Zrotation
         End Site
         {
          OFFSET 0.000000 -17.728500 0.000000
         }
        }
       }
      }
     }
    }
   }
  }
 }
 JOINT RightHip
 {
  OFFSET -7.771700 -0.012900 -0.001300
  CHANNELS 3 Yrotation Xrotation Zrotation
  JOINT RightKnee
  {
   OFFSET 0.000000 -40.869800 0.001200
   CHANNELS 3 Yrotation Xrotation Zrotation
   JOINT RightAnkle
   {
    OFFSET 0.000000 -39.717900 0.002100
    CHANNELS 3 Yrotation Xrotation Zrotation
    JOINT RightToe
    {
     OFFSET 0.000000 -4.965400 11.033500
     CHANNELS 3 Yrotation Xrotation Zrotation
     End Site
     {
      OFFSET 0.000000 -1.423100 5.872300
     }
    }
   }
  }
 }
 JOINT LeftHip
 {
  OFFSET 7.771700 -0.012900 -0.001300
  CHANNELS 3 Yrotation Xrotation Zrotation
  JOINT LeftKnee
  {
   OFFSET 0.000000 -40.869800 0.001200
   CHANNELS 3 Yrotation Xrotation Zrotation
   JOINT LeftAnkle
   {
    OFFSET 0.000000 -39.717900 0.002100
    CHANNELS 3 Yrotation Xrotation Zrotation
    JOINT LeftToe
    {
     OFFSET 0.000000 -4.965400 11.033500
     CHANNELS 3 Yrotation Xrotation Zrotation
     End Site
     {
      OFFSET 0.000000 -1.423100 5.872300
     }
    }
   }
  }
 }
}
MOTION
Frames: 5
Frame Time: 0.008333
0.085680 50.164858 36.667419 172.135023 -33.872541 -7.182606 6.607454 19.010823 7.147941 0.715641 2.488632 0.641074 1.176986 4.039299 1.053046 5.394147 16.320140 4.934732 -1.443808 14.593836 0.803943 -2.966119 -8.684483 2.034173 -2.431244 -2.659571 -6.285072 3.362304 -4.731118 3.512826 80.457934 -68.978330 -95.246174 15.596283 7.508096 35.876450 -10.054431 -1.512160 0.508395 5.909984 -3.103036 -2.028285 -100.090790 -65.951337 108.988870 6.476793 1.357472 -34.520489 2.184226 -47.547593 8.886010 -69.606882 81.492311 -57.693560 0.266272 -6.088175 -3.225148 -0.270319 1.163988 -0.118397 -13.700102 -50.803757 19.708686 -144.885193 87.722140 -151.555279 0.445986 -8.786319 4.308783 -0.045687 -0.236092 -0.042128
0.087663 50.168801 36.669557 172.133871 -33.863760 -7.175949 6.615971 19.019559 7.152251 0.705760 2.490275 0.639064 1.179264 4.037257 1.051455 5.403417 16.334083 4.935473 -1.433363 14.571998 0.798691 -2.866385 -8.680618 2.004000 -2.454233 -2.722901 -6.412447 3.239303 -4.617582 3.416714 82.154598 -68.588240 -96.785525 16.034176 7.015536 37.611212 -10.092298 -1.524329 0.554257 6.058304 -3.106478 -1.893878 -101.153842 -66.252318 109.807002 6.418398 1.719531 -35.541387 2.193292 -47.559713 8.879467 -69.618054 81.492091 -57.701284 0.266625 -6.093477 -3.227832 -0.269514 1.168357 -0.118895 -13.692934 -50.815413 19.698843 -145.117858 87.732440 -151.785283 0.434802 -8.767752 4.317955 -0.044074 -0.238928 -0.045722
0.090153 50.172913 36.670986 172.130390 -33.859650 -7.169507 6.615804 19.034698 7.153040 0.705790 2.480922 0.635179 1.181390 4.033651 1.050045 5.394312 16.375648 4.940104 -1.382213 14.548971 0.789323 -2.771133 -8.675439 1.983009 -2.443267 -2.794282 -6.500459 3.122922 -4.509374 3.258572 83.803780 -68.314463 -98.256519 16.354891 6.559926 39.226075 -10.110111 -1.554615 0.600315 6.207956 -3.120212 -1.765120 -102.260399 -66.573682 110.670593 6.344145 2.098416 -36.654156 2.201159 -47.567048 8.877311 -69.620871 81.493024 -57.701776 0.263851 -6.097810 -3.229854 -0.268274 1.171288 -0.120426 -13.678378 -50.822796 19.686957 -145.380336 87.742252 -152.043129 0.423674 -8.751383 4.327318 -0.044866 -0.248408 -0.052377
0.093920 50.177271 36.671795 172.129886 -33.860032 -7.170955 6.609888 19.051126 7.157353 0.709827 2.474176 0.632407 1.176854 4.045045 1.051756 5.398743 16.363112 4.933546 -1.293047 14.600800 0.799609 -2.704629 -8.694488 1.965962 -2.435084 -2.824390 -6.556080 3.018743 -4.401127 3.059011 85.423727 -68.167904 -99.681223 16.575107 6.171440 40.728867 -10.137878 -1.542012 0.648893 6.357710 -3.147641 -1.644132 -103.405091 -66.898420 111.577856 6.258628 2.490706 -37.887505 2.195098 -47.571374 8.899462 -69.633181 81.490584 -57.720187 0.240830 -6.098148 -3.235220 -0.255328 1.169607 -0.112874 -13.686313 -50.821327 19.693619 -145.665456 87.748627 -152.331270 0.417141 -8.737409 4.332456 -0.045434 -0.246821 -0.051420
0.096583 50.180360 36.673340 172.123795 -33.852451 -7.162718 6.603429 19.061203 7.155287 0.709211 2.475869 0.632179 1.175847 4.047616 1.051477 5.393515 16.369379 4.930731 -1.227896 14.607153 0.798001 -2.589048 -8.676971 1.942202 -2.414809 -2.862167 -6.592063 2.931755 -4.302578 2.816259 87.030598 -68.134027 -101.085599 16.705165 5.852169 42.129455 -10.153275 -1.546892 0.689443 6.514115 -3.188882 -1.528863 -104.597016 -67.229616 112.522922 6.155990 2.897914 -39.255056 2.194616 -47.583793 8.907856 -69.648858 81.489504 -57.742114 0.232928 -6.101263 -3.240054 -0.251786 1.171379 -0.110059 -13.684854 -50.830143 19.695300 -145.630106 87.750182 -152.302344 0.419358 -8.722220 4.340694 -0.046083 -0.235950 -0.044735
